<svg width="49" height="49" viewBox="0 0 49 49" fill="none" xmlns="http://www.w3.org/2000/svg">
<path d="M37.5155 38.2051H36.08H12.7715H11.3359H9.90039V42.0121H38.9511V38.2051H37.5155Z" fill="#7A00F4"/>
<path d="M13.2864 14.572L11.2891 19.4424L12.5791 20.0778L13.8702 20.7133L15.4455 21.4885L16.6159 19.8166L17.4428 18.6356L18.2687 17.4556L13.2864 14.572Z" fill="#7A00F4"/>
<path d="M35.7138 14.572L30.6367 17.5101L31.4636 18.6901L32.2895 19.8711L33.4217 21.4885L35.108 20.6587L36.398 20.0233L37.6891 19.3878L35.7138 14.572Z" fill="#7A00F4"/>
<path d="M44.9518 14.2315C42.8817 14.2315 41.1705 15.7914 40.9322 17.7983C40.9131 17.9562 40.9035 18.117 40.9035 18.2797C40.9035 18.6453 40.9523 19.0003 41.0442 19.3372C41.1715 19.809 41.383 20.2474 41.6605 20.634L38.7818 22.0514L37.4907 22.6868L37.33 22.7663H37.329L36.1997 23.3213L32.4816 25.1521L29.7953 21.3154L29.0727 20.2828V20.2818L28.9684 20.1335L28.1425 18.9534L25.3652 14.9856C25.8513 14.8727 26.305 14.6717 26.7069 14.3999C27.1117 14.1281 27.4649 13.7826 27.7482 13.3845C28.219 12.7232 28.4966 11.9145 28.4966 11.0426C28.4966 8.80987 26.6811 6.99438 24.4483 6.99438C22.2165 6.99438 20.4001 8.80987 20.4001 11.0426C20.4001 11.9059 20.6719 12.7069 21.1341 13.3644C21.4155 13.7644 21.7667 14.1118 22.1696 14.3865C22.5697 14.6602 23.0214 14.8641 23.5066 14.9799L20.7628 18.8989L19.9369 20.0789L19.7598 20.3325L19.11 21.2608L16.3863 25.1521L12.7773 23.3759L11.5887 22.7902L11.4872 22.7404L10.1962 22.105L7.06289 20.5632C7.3835 20.2052 7.64189 19.7899 7.8199 19.3353C7.99791 18.8807 8.09553 18.3869 8.09648 17.871V17.8634C8.09648 15.6306 6.281 13.8142 4.04824 13.8142C1.81645 13.8142 0 15.6306 0 17.8634C0 19.9105 1.52838 21.6092 3.50465 21.8753C3.68266 21.8992 3.86354 21.9116 4.04824 21.9116C4.37555 21.9116 4.69328 21.8724 4.99857 21.7987C5.47613 21.6839 5.92115 21.4838 6.31641 21.2159L10.8259 33.8984L11.336 35.334H37.5309L38.041 33.8984L42.4616 21.4685C42.8415 21.7662 43.275 21.9968 43.7459 22.1442C44.1268 22.2638 44.5316 22.3279 44.9518 22.3279C45.0379 22.3279 45.1231 22.3251 45.2073 22.3193C47.3204 22.1873 49 20.4254 49 18.2797C49 16.0469 47.1836 14.2315 44.9518 14.2315Z" fill="#A078FA"/>
</svg>
