<svg width="154" height="30" viewBox="0 0 154 30" fill="none" xmlns="http://www.w3.org/2000/svg">
<path d="M11.528 29.36C9.992 29.36 8.528 29.12 7.136 28.64C5.744 28.16 4.532 27.488 3.5 26.624C2.468 25.76 1.712 24.764 1.232 23.636C0.992 23.132 0.992 22.664 1.232 22.232C1.496 21.8 1.928 21.524 2.528 21.404C2.96 21.308 3.38 21.38 3.788 21.62C4.22 21.836 4.544 22.172 4.76 22.628C5.048 23.228 5.516 23.78 6.164 24.284C6.836 24.788 7.64 25.196 8.576 25.508C9.512 25.82 10.496 25.976 11.528 25.976C12.68 25.976 13.736 25.796 14.696 25.436C15.68 25.076 16.472 24.56 17.072 23.888C17.672 23.192 17.972 22.34 17.972 21.332C17.972 20.06 17.468 18.92 16.46 17.912C15.476 16.904 13.844 16.28 11.564 16.04C8.588 15.752 6.248 14.876 4.544 13.412C2.84 11.948 1.988 10.136 1.988 7.976C1.988 6.392 2.432 5.048 3.32 3.944C4.208 2.84 5.408 2 6.92 1.424C8.456 0.847999 10.16 0.559999 12.032 0.559999C13.496 0.559999 14.768 0.763999 15.848 1.172C16.952 1.58 17.912 2.144 18.728 2.864C19.544 3.584 20.252 4.436 20.852 5.42C21.188 5.948 21.32 6.452 21.248 6.932C21.2 7.388 20.972 7.748 20.564 8.012C20.108 8.3 19.616 8.36 19.088 8.192C18.56 8.024 18.164 7.712 17.9 7.256C17.516 6.56 17.048 5.972 16.496 5.492C15.944 5.012 15.296 4.64 14.552 4.376C13.808 4.088 12.932 3.944 11.924 3.944C10.148 3.92 8.66 4.256 7.46 4.952C6.26 5.624 5.66 6.668 5.66 8.084C5.66 8.804 5.84 9.5 6.2 10.172C6.584 10.82 7.268 11.384 8.252 11.864C9.26 12.344 10.7 12.68 12.572 12.872C15.428 13.16 17.648 14.036 19.232 15.5C20.84 16.94 21.644 18.848 21.644 21.224C21.644 22.592 21.356 23.78 20.78 24.788C20.228 25.796 19.472 26.648 18.512 27.344C17.576 28.016 16.496 28.52 15.272 28.856C14.072 29.192 12.824 29.36 11.528 29.36ZM29.2572 29C28.7532 29 28.3092 28.82 27.9252 28.46C27.5652 28.1 27.3852 27.656 27.3852 27.128V2.756C27.3852 2.228 27.5652 1.784 27.9252 1.424C28.3092 1.064 28.7532 0.883999 29.2572 0.883999C29.7852 0.883999 30.2292 1.064 30.5892 1.424C30.9492 1.784 31.1292 2.228 31.1292 2.756V13.556L43.0452 1.64C43.3332 1.352 43.5972 1.16 43.8372 1.064C44.0772 0.943999 44.3292 0.883999 44.5932 0.883999C45.1932 0.883999 45.6252 1.064 45.8892 1.424C46.1532 1.784 46.2492 2.216 46.1772 2.72C46.1052 3.2 45.8772 3.644 45.4932 4.052L36.3132 13.268L45.6732 26.012C45.9612 26.42 46.0812 26.864 46.0332 27.344C45.9852 27.8 45.8172 28.196 45.5292 28.532C45.2412 28.844 44.8572 29 44.3772 29C43.7052 29 43.1892 28.736 42.8292 28.208L33.7212 15.86L31.1292 18.452V27.128C31.1292 27.656 30.9492 28.1 30.5892 28.46C30.2292 28.82 29.7852 29 29.2572 29ZM60.1724 29C59.6684 29 59.2364 28.82 58.8764 28.46C58.5164 28.1 58.3364 27.656 58.3364 27.128V18.74L48.7244 3.8C48.4124 3.296 48.2924 2.828 48.3644 2.396C48.4364 1.94 48.6404 1.58 48.9764 1.316C49.3364 1.028 49.7444 0.883999 50.2004 0.883999C50.6084 0.883999 50.9324 0.979999 51.1724 1.172C51.4124 1.34 51.6404 1.592 51.8564 1.928L61.0004 16.436H59.5604L68.8484 1.784C69.0404 1.496 69.2684 1.28 69.5324 1.136C69.7964 0.967999 70.1204 0.883999 70.5044 0.883999C70.9364 0.883999 71.2964 1.04 71.5844 1.352C71.8724 1.64 72.0404 2.012 72.0884 2.468C72.1364 2.9 72.0164 3.344 71.7284 3.8L62.0444 18.74V27.128C62.0444 27.656 61.8644 28.1 61.5044 28.46C61.1444 28.82 60.7004 29 60.1724 29ZM77.7376 29C77.2096 29 76.7656 28.82 76.4056 28.46C76.0456 28.1 75.8656 27.656 75.8656 27.128V2.756C75.8656 2.204 76.0456 1.76 76.4056 1.424C76.7656 1.064 77.2096 0.883999 77.7376 0.883999H86.3416C87.9736 0.883999 89.4016 1.208 90.6256 1.856C91.8736 2.48 92.8456 3.356 93.5416 4.484C94.2616 5.612 94.6216 6.908 94.6216 8.372C94.6216 9.548 94.2976 10.616 93.6496 11.576C93.0256 12.512 92.1616 13.256 91.0576 13.808C92.6416 14.192 93.9136 14.948 94.8736 16.076C95.8336 17.204 96.3136 18.68 96.3136 20.504C96.3136 22.16 95.9176 23.624 95.1256 24.896C94.3576 26.168 93.2776 27.176 91.8856 27.92C90.4936 28.64 88.8976 29 87.0976 29H77.7376ZM79.6096 25.544H87.0976C88.2016 25.544 89.1736 25.352 90.0136 24.968C90.8536 24.584 91.5136 24.02 91.9936 23.276C92.4736 22.532 92.7136 21.608 92.7136 20.504C92.7136 19.472 92.4736 18.62 91.9936 17.948C91.5136 17.276 90.8536 16.772 90.0136 16.436C89.1736 16.076 88.2016 15.896 87.0976 15.896H79.6096V25.544ZM79.6096 12.44H86.3416C87.7096 12.44 88.8256 12.104 89.6896 11.432C90.5776 10.76 91.0216 9.74 91.0216 8.372C91.0216 7.004 90.5776 5.996 89.6896 5.348C88.8256 4.676 87.7096 4.34 86.3416 4.34H79.6096V12.44ZM114.174 29.36C112.062 29.36 110.13 29.012 108.378 28.316C106.626 27.596 105.114 26.6 103.842 25.328C102.594 24.032 101.622 22.508 100.926 20.756C100.23 18.98 99.8821 17.036 99.8821 14.924C99.8821 12.812 100.23 10.88 100.926 9.128C101.622 7.376 102.594 5.864 103.842 4.592C105.114 3.296 106.626 2.3 108.378 1.604C110.13 0.883999 112.062 0.524 114.174 0.524C116.286 0.524 118.206 0.883999 119.934 1.604C121.686 2.3 123.198 3.296 124.47 4.592C125.742 5.864 126.726 7.376 127.422 9.128C128.118 10.88 128.466 12.812 128.466 14.924C128.466 17.036 128.118 18.98 127.422 20.756C126.726 22.508 125.742 24.032 124.47 25.328C123.198 26.6 121.686 27.596 119.934 28.316C118.206 29.012 116.286 29.36 114.174 29.36ZM114.174 25.976C115.734 25.976 117.162 25.7 118.458 25.148C119.778 24.572 120.918 23.792 121.878 22.808C122.838 21.8 123.57 20.624 124.074 19.28C124.602 17.936 124.866 16.484 124.866 14.924C124.866 13.364 124.602 11.912 124.074 10.568C123.57 9.224 122.838 8.06 121.878 7.076C120.918 6.068 119.778 5.288 118.458 4.736C117.162 4.184 115.734 3.908 114.174 3.908C112.614 3.908 111.174 4.184 109.854 4.736C108.558 5.288 107.43 6.068 106.47 7.076C105.534 8.06 104.802 9.224 104.274 10.568C103.746 11.912 103.482 13.364 103.482 14.924C103.482 16.484 103.746 17.936 104.274 19.28C104.802 20.624 105.534 21.8 106.47 22.808C107.43 23.792 108.558 24.572 109.854 25.148C111.174 25.7 112.614 25.976 114.174 25.976ZM132.781 29C132.229 29 131.809 28.832 131.521 28.496C131.233 28.136 131.089 27.728 131.089 27.272C131.089 26.792 131.233 26.36 131.521 25.976L140.593 13.88L142.213 12.44L150.493 1.424C150.829 1.064 151.273 0.883999 151.825 0.883999C152.329 0.883999 152.725 1.04 153.013 1.352C153.301 1.664 153.457 2.048 153.481 2.504C153.505 2.96 153.373 3.404 153.085 3.836L144.337 15.5L142.789 16.868L134.077 28.46C133.717 28.82 133.285 29 132.781 29ZM151.609 29C151.297 29 151.021 28.952 150.781 28.856C150.565 28.736 150.361 28.556 150.169 28.316L141.781 16.688L140.449 15.572L131.989 3.836C131.701 3.452 131.581 3.032 131.629 2.576C131.677 2.12 131.845 1.724 132.133 1.388C132.445 1.052 132.853 0.883999 133.357 0.883999C133.981 0.883999 134.425 1.064 134.689 1.424L142.681 12.512L144.049 13.628L152.941 25.976C153.229 26.36 153.361 26.792 153.337 27.272C153.313 27.752 153.145 28.16 152.833 28.496C152.545 28.832 152.137 29 151.609 29Z" fill="white"/>
</svg>
